<svg viewBox="0 0 512 512" xml:space="preserve" xmlns="http://www.w3.org/2000/svg"><g fill="none" stroke="#07d8b2" stroke-linecap="round" stroke-linejoin="round" stroke-miterlimit="10" class="stroke-000000"><g stroke-width="20.148"></g><g stroke-width="20.176"></g><g stroke-width="20.176"></g><g stroke-width="20.148"></g><g stroke-width="20.176"></g><g stroke-width="20.148"><path d="m236.477 210.991 43.465 73.046-103.565 61.644-43.467-73.075zM160.373 127.285l39.066 65.673-42.523 25.292-39.066-65.645zM277.856 324.733l39.066 65.673-42.524 25.292-39.065-65.644zM300.404 192.043l26.406 44.382c5.286 8.917 2.343 20.52-6.545 25.835h0c-8.916 5.287-20.519 2.343-25.834-6.573l-26.406-44.382c-5.286-8.888-2.343-20.52 6.545-25.806h0c8.916-5.316 20.519-2.344 25.834 6.544h0zM179.578 204.789l17.604 29.579M240.648 307.443l17.319 29.121"></path><path d="M242.791 482c121.627 0 220.792-99.195 220.792-220.797 0-121.63-99.165-220.797-220.792-220.797C121.193 40.406 22 139.573 22 261.203 22 382.805 121.193 482 242.791 482h0z"></path><path d="M411.286 61.268C542.114-12.836 499.791 87.646 339.67 188.1"></path></g><g stroke-width="20.176"></g><g stroke-width="20.176"></g><g stroke-width="20.176"></g><g stroke-width="20.176"></g><g stroke-width="20.176"></g><g stroke-width="20.176"></g><g stroke-width="20.176"></g><g stroke-width="20.148"></g><g stroke-width="20.148"></g></g></svg>